<svg width="131" height="57" viewBox="0 0 131 57" fill="none" xmlns="http://www.w3.org/2000/svg">
<path d="M13.2855 3.43285C13.6956 2.76659 13.2163 1.90869 12.4339 1.90869H1.31836C0.766075 1.90869 0.318359 2.35641 0.318359 2.90869V20.9683C0.318359 21.9766 1.64147 22.3511 2.16998 21.4925L13.2855 3.43285Z" fill="#00C537"/>
<path d="M1.06911 30.9163C0.627226 31.03 0.318359 31.4284 0.318359 31.8847V51.8226C0.318359 52.3749 0.766075 52.8226 1.31836 52.8226H10.9616C11.6135 52.8226 12.0911 52.209 11.931 51.5771L6.59893 30.5296C6.46293 29.9928 5.91659 29.6687 5.3803 29.8067L1.06911 30.9163Z" fill="#00C537"/>
<path d="M16.4449 51.2985C16.0348 51.9647 16.5141 52.8226 17.2965 52.8226H28.412C28.9643 52.8226 29.412 52.3749 29.412 51.8226V33.763C29.412 32.7547 28.0889 32.3802 27.5604 33.2388L16.4449 51.2985Z" fill="#00C537"/>
<path d="M28.6613 23.815C29.1032 23.7013 29.412 23.3029 29.412 22.8466V2.90869C29.412 2.35641 28.9643 1.90869 28.412 1.90869H18.7688C18.117 1.90869 17.6394 2.52236 17.7994 3.15427L23.1315 24.2017C23.2675 24.7385 23.8138 25.0626 24.3501 24.9246L28.6613 23.815Z" fill="#00C537"/>
<path d="M47.5873 22.3258C46.3654 22.3258 45.2695 22.1222 44.2997 21.7149C43.3299 21.2882 42.5638 20.7063 42.0013 19.9692C41.4388 19.2128 41.1285 18.3497 41.0703 17.3799H43.8051C43.8827 18.1751 44.2512 18.8249 44.9107 19.3292C45.5895 19.8335 46.472 20.0856 47.5582 20.0856C48.5668 20.0856 49.362 19.8626 49.9439 19.4165C50.5258 18.9704 50.8167 18.4079 50.8167 17.729C50.8167 17.0308 50.5064 16.5168 49.8857 16.1871C49.265 15.8379 48.3049 15.4985 47.0054 15.1688C45.8223 14.8585 44.8525 14.5481 44.0961 14.2378C43.359 13.9081 42.719 13.4329 42.1759 12.8122C41.6522 12.1721 41.3903 11.3381 41.3903 10.3101C41.3903 9.49552 41.6328 8.74878 42.1177 8.06993C42.6026 7.39108 43.2911 6.85769 44.1833 6.46978C45.0755 6.06247 46.0938 5.85881 47.2382 5.85881C49.0032 5.85881 50.4288 6.30491 51.5149 7.19712C52.6011 8.08933 53.183 9.31126 53.2606 10.8629H50.613C50.5549 10.0289 50.2154 9.35975 49.5948 8.85546C48.9935 8.35117 48.1789 8.09903 47.1509 8.09903C46.2005 8.09903 45.4441 8.30268 44.8816 8.70999C44.3191 9.1173 44.0379 9.65069 44.0379 10.3101C44.0379 10.8338 44.2027 11.2702 44.5325 11.6194C44.8816 11.9491 45.3083 12.2206 45.8126 12.434C46.3363 12.6279 47.0539 12.851 47.9655 13.1031C49.1099 13.4135 50.0409 13.7238 50.7585 14.0341C51.4762 14.3251 52.0871 14.7712 52.5914 15.3724C53.1151 15.9737 53.3866 16.7592 53.406 17.729C53.406 18.6018 53.1636 19.3874 52.6787 20.0856C52.1938 20.7839 51.5052 21.3367 50.613 21.744C49.7402 22.1319 48.7316 22.3258 47.5873 22.3258Z" fill="#00542D"/>
<path d="M57.2175 9.05912C57.7412 8.14751 58.517 7.39108 59.545 6.78981C60.5923 6.16914 61.8046 5.85881 63.1817 5.85881C64.5976 5.85881 65.8777 6.19824 67.022 6.87709C68.1858 7.55594 69.0974 8.51604 69.7568 9.75737C70.4163 10.9793 70.746 12.4049 70.746 14.0341C70.746 15.644 70.4163 17.0793 69.7568 18.34C69.0974 19.6007 68.1858 20.5802 67.022 21.2785C65.8777 21.9767 64.5976 22.3258 63.1817 22.3258C61.824 22.3258 60.6214 22.0252 59.5741 21.4239C58.5461 20.8033 57.7605 20.0371 57.2175 19.1255L57.2469 26.4005H54.5699V6.12065H57.2175V9.05912ZM68.0403 14.0341C68.0403 12.8316 67.7979 11.7842 67.313 10.892C66.8281 9.99981 66.1686 9.32096 65.3346 8.85546C64.52 8.38996 63.6181 8.15721 62.6289 8.15721C61.6591 8.15721 60.7572 8.39966 59.9232 8.88455C59.1086 9.35005 58.4491 10.0386 57.9448 10.9502C57.4599 11.8424 57.2175 12.8801 57.2175 14.0632C57.2175 15.2658 57.4599 16.3228 57.9448 17.2344C58.4491 18.1266 59.1086 18.8152 59.9232 19.3001C60.7572 19.7656 61.6591 19.9983 62.6289 19.9983C63.6181 19.9983 64.52 19.7656 65.3346 19.3001C66.1686 18.8152 66.8281 18.1266 67.313 17.2344C67.7979 16.3228 68.0403 15.2561 68.0403 14.0341Z" fill="#00542D"/>
<path d="M71.9623 14.0341C71.9623 12.4049 72.292 10.9793 72.9515 9.75737C73.6109 8.51604 74.5128 7.55594 75.6572 6.87709C76.8209 6.19824 78.1107 5.85881 79.5266 5.85881C80.9231 5.85881 82.1354 6.15945 83.1634 6.76072C84.1913 7.36199 84.9575 8.11842 85.4618 9.03002V6.12065H88.1384V22.064H85.4618V19.0964C84.9381 20.0274 84.1525 20.8033 83.1052 21.4239C82.0772 22.0252 80.8746 22.3258 79.4975 22.3258C78.0817 22.3258 76.8015 21.9767 75.6572 21.2785C74.5128 20.5802 73.6109 19.6007 72.9515 18.34C72.292 17.0793 71.9623 15.644 71.9623 14.0341ZM85.4618 14.0632C85.4618 12.8607 85.2193 11.8133 84.7344 10.9211C84.2495 10.0289 83.5901 9.35005 82.756 8.88455C81.9414 8.39966 81.0395 8.15721 80.0503 8.15721C79.0611 8.15721 78.1592 8.38996 77.3446 8.85546C76.53 9.32096 75.8802 9.99981 75.3953 10.892C74.9104 11.7842 74.668 12.8316 74.668 14.0341C74.668 15.2561 74.9104 16.3228 75.3953 17.2344C75.8802 18.1266 76.53 18.8152 77.3446 19.3001C78.1592 19.7656 79.0611 19.9983 80.0503 19.9983C81.0395 19.9983 81.9414 19.7656 82.756 19.3001C83.5901 18.8152 84.2495 18.1266 84.7344 17.2344C85.2193 16.3228 85.4618 15.2658 85.4618 14.0632Z" fill="#00542D"/>
<path d="M92.0988 8.70999C92.5643 7.79839 93.2238 7.09044 94.0772 6.58615C94.95 6.08186 96.007 5.82972 97.2484 5.82972V8.56452H96.5501C93.5826 8.56452 92.0988 10.1744 92.0988 13.3941V22.064H89.4513V6.12065H92.0988V8.70999Z" fill="#00542D"/>
<path d="M106.93 22.064L100.675 15.0233V22.064H98.0276V0.534668H100.675V13.1904L106.814 6.12065H110.509L103.003 14.0632L110.538 22.064H106.93Z" fill="#00542D"/>
<path d="M113.612 8.70999C114.077 7.79839 114.737 7.09044 115.59 6.58615C116.463 6.08186 117.52 5.82972 118.761 5.82972V8.56452H118.063C115.095 8.56452 113.612 10.1744 113.612 13.3941V22.064H110.964V6.12065H113.612V8.70999Z" fill="#00542D"/>
<path d="M41.0703 40.7214C41.0703 39.0921 41.4 37.6665 42.0595 36.4446C42.719 35.2033 43.6209 34.2432 44.7652 33.5643C45.929 32.8855 47.2285 32.546 48.6638 32.546C49.9051 32.546 51.0591 32.837 52.1259 33.4189C53.1927 33.9813 54.0073 34.7281 54.5698 35.6591V26.3628H57.2464V48.7512H54.5698V45.7546C54.0461 46.705 53.2703 47.4905 52.2423 48.1112C51.2143 48.7124 50.0118 49.0131 48.6347 49.0131C47.2188 49.0131 45.929 48.6639 44.7652 47.9657C43.6209 47.2674 42.719 46.288 42.0595 45.0272C41.4 43.7665 41.0703 42.3312 41.0703 40.7214ZM54.5698 40.7505C54.5698 39.5479 54.3273 38.5005 53.8424 37.6083C53.3575 36.7161 52.6981 36.0373 51.8641 35.5718C51.0494 35.0869 50.1475 34.8444 49.1584 34.8444C48.1692 34.8444 47.2673 35.0772 46.4526 35.5427C45.638 36.0082 44.9883 36.687 44.5034 37.5792C44.0185 38.4715 43.776 39.5188 43.776 40.7214C43.776 41.9433 44.0185 43.0101 44.5034 43.9217C44.9883 44.8139 45.638 45.5024 46.4526 45.9873C47.2673 46.4528 48.1692 46.6856 49.1584 46.6856C50.1475 46.6856 51.0494 46.4528 51.8641 45.9873C52.6981 45.5024 53.3575 44.8139 53.8424 43.9217C54.3273 43.0101 54.5698 41.953 54.5698 40.7505Z" fill="#00542D"/>
<path d="M61.0569 32.8079V48.7512H58.4093V32.8079H61.0569Z" fill="#00542D"/>
<path d="M69.7956 32.5545C71.1727 32.5545 72.3752 32.8552 73.4032 33.4565C74.4506 34.0577 75.2264 34.8142 75.7307 35.7258V32.8164H78.4073V49.1089C78.4073 50.5635 78.097 51.8534 77.4763 52.9783C76.8557 54.1227 75.9635 55.0149 74.7997 55.6549C73.6554 56.295 72.317 56.615 70.7848 56.615C68.69 56.615 66.9444 56.1204 65.5479 55.1312C64.1514 54.1421 63.3271 52.7941 63.075 51.0872H65.6934C65.9843 52.057 66.5856 52.8328 67.4972 53.4147C68.4088 54.016 69.5047 54.3166 70.7848 54.3166C72.2395 54.3166 73.4226 53.8608 74.3342 52.9492C75.2652 52.0376 75.7307 50.7575 75.7307 49.1089V45.7631C75.207 46.6941 74.4312 47.4699 73.4032 48.0906C72.3752 48.7112 71.1727 49.0216 69.7956 49.0216C68.3797 49.0216 67.0899 48.6724 65.9261 47.9742C64.7818 47.2759 63.8799 46.2965 63.2204 45.0357C62.561 43.775 62.2312 42.3397 62.2312 40.7299C62.2312 39.1006 62.561 37.675 63.2204 36.4531C63.8799 35.2118 64.7818 34.2517 65.9261 33.5728C67.0899 32.894 68.3797 32.5545 69.7956 32.5545ZM75.7307 40.759C75.7307 39.5564 75.4883 38.5091 75.0034 37.6168C74.5185 36.7246 73.859 36.0458 73.025 35.5803C72.2104 35.0954 71.3085 34.8529 70.3193 34.8529C69.3301 34.8529 68.4282 35.0857 67.6136 35.5512C66.7989 36.0167 66.1492 36.6955 65.6643 37.5878C65.1794 38.48 64.937 39.5273 64.937 40.7299C64.937 41.9518 65.1794 43.0186 65.6643 43.9302C66.1492 44.8224 66.7989 45.5109 67.6136 45.9958C68.4282 46.4613 69.3301 46.6941 70.3193 46.6941C71.3085 46.6941 72.2104 46.4613 73.025 45.9958C73.859 45.5109 74.5185 44.8224 75.0034 43.9302C75.4883 43.0186 75.7307 41.9615 75.7307 40.759Z" fill="#00542D"/>
<path d="M87.8723 34.9984V44.3957C87.8723 45.1715 88.0371 45.7243 88.3669 46.054C88.6966 46.3643 89.2688 46.5195 90.0834 46.5195H92.0327V48.7597H89.647C88.1729 48.7597 87.0674 48.4203 86.3303 47.7415C85.5933 47.0626 85.2248 45.9473 85.2248 44.3957V34.9984H83.3769V32.8164H85.2248V28.8015H87.8723V32.8164H92.0327V34.9984H87.8723Z" fill="#00542D"/>
<path d="M92.885 40.7299C92.885 39.1006 93.2147 37.675 93.8742 36.4531C94.5336 35.2118 95.4356 34.2517 96.5799 33.5728C97.7436 32.894 99.0335 32.5545 100.449 32.5545C101.846 32.5545 103.058 32.8552 104.086 33.4565C105.114 34.0577 105.88 34.8142 106.384 35.7258V32.8164H109.061V48.7597H106.384V45.7922C105.861 46.7232 105.075 47.499 104.028 48.1197C103 48.7209 101.797 49.0216 100.42 49.0216C99.0044 49.0216 97.7243 48.6724 96.5799 47.9742C95.4356 47.2759 94.5336 46.2965 93.8742 45.0357C93.2147 43.775 92.885 42.3397 92.885 40.7299ZM106.384 40.759C106.384 39.5564 106.142 38.5091 105.657 37.6168C105.172 36.7246 104.513 36.0458 103.679 35.5803C102.864 35.0954 101.962 34.8529 100.973 34.8529C99.9839 34.8529 99.082 35.0857 98.2673 35.5512C97.4527 36.0167 96.803 36.6955 96.3181 37.5878C95.8332 38.48 95.5907 39.5273 95.5907 40.7299C95.5907 41.9518 95.8332 43.0186 96.3181 43.9302C96.803 44.8224 97.4527 45.5109 98.2673 45.9958C99.082 46.4613 99.9839 46.6941 100.973 46.6941C101.962 46.6941 102.864 46.4613 103.679 45.9958C104.513 45.5109 105.172 44.8224 105.657 43.9302C106.142 43.0186 106.384 41.9615 106.384 40.759Z" fill="#00542D"/>
<path d="M112.877 27.2304V48.7597H110.229V27.2304H112.877Z" fill="#00542D"/>
<path d="M120.231 49.0216C119.009 49.0216 117.913 48.8179 116.943 48.4106C115.973 47.9839 115.207 47.402 114.645 46.665C114.082 45.9085 113.772 45.0454 113.714 44.0756H116.448C116.526 44.8709 116.895 45.5206 117.554 46.0249C118.233 46.5292 119.115 46.7814 120.202 46.7814C121.21 46.7814 122.005 46.5583 122.587 46.1122C123.169 45.6661 123.46 45.1036 123.46 44.4248C123.46 43.7265 123.15 43.2125 122.529 42.8828C121.908 42.5337 120.948 42.1943 119.649 41.8645C118.466 41.5542 117.496 41.2439 116.739 40.9335C116.002 40.6038 115.362 40.1286 114.819 39.5079C114.296 38.8679 114.034 38.0339 114.034 37.0059C114.034 36.1913 114.276 35.4445 114.761 34.7657C115.246 34.0868 115.934 33.5534 116.827 33.1655C117.719 32.7582 118.737 32.5545 119.882 32.5545C121.647 32.5545 123.072 33.0006 124.158 33.8929C125.244 34.7851 125.826 36.007 125.904 37.5587H123.256C123.198 36.7246 122.859 36.0555 122.238 35.5512C121.637 35.0469 120.822 34.7948 119.794 34.7948C118.844 34.7948 118.087 34.9984 117.525 35.4057C116.962 35.813 116.681 36.3464 116.681 37.0059C116.681 37.5296 116.846 37.966 117.176 38.3151C117.525 38.6448 117.952 38.9164 118.456 39.1297C118.98 39.3237 119.697 39.5467 120.609 39.7989C121.753 40.1092 122.684 40.4195 123.402 40.7299C124.12 41.0208 124.73 41.4669 125.235 42.0682C125.758 42.6695 126.03 43.455 126.049 44.4248C126.049 45.2976 125.807 46.0831 125.322 46.7814C124.837 47.4796 124.149 48.0324 123.256 48.4397C122.384 48.8276 121.375 49.0216 120.231 49.0216Z" fill="#00542D"/>
<path d="M82.2175 32.8053V48.7487H79.57V32.8053H82.2175Z" fill="#00542D"/>
<rect x="79.4492" y="26.917" width="2.92106" height="2.86759" fill="#00542D"/>
<rect x="79.4492" y="26.917" width="2.92106" height="2.86759" fill="#00542D"/>
<rect x="58.2812" y="26.917" width="2.92106" height="2.86759" fill="#00542D"/>
<rect x="127.904" y="45.8638" width="2.92106" height="2.86759" fill="#00542D"/>
</svg>
