<svg width="95" height="41" viewBox="0 0 95 41" fill="none" xmlns="http://www.w3.org/2000/svg">
<path d="M9.43598 2.10911C9.73439 1.62428 9.38558 1 8.81627 1H0.727683C0.325795 1 0 1.32579 0 1.72768V14.8693C0 15.603 0.962805 15.8756 1.34739 15.2508L9.43598 2.10911Z" fill="white"/>
<path d="M0.546311 22.1083C0.224757 22.1911 0 22.481 0 22.813V37.3215C0 37.7234 0.325795 38.0492 0.727683 38.0492H7.7449C8.21925 38.0492 8.56678 37.6026 8.4503 37.1428L4.57026 21.8269C4.4713 21.4363 4.07373 21.2005 3.68349 21.3009L0.546311 22.1083Z" fill="white"/>
<path d="M11.735 36.9401C11.4366 37.4249 11.7854 38.0492 12.3547 38.0492H20.4433C20.8452 38.0492 21.171 37.7234 21.171 37.3215V24.1798C21.171 23.4461 20.2082 23.1736 19.8236 23.7984L11.735 36.9401Z" fill="white"/>
<path d="M20.6247 16.9408C20.9462 16.8581 21.171 16.5682 21.171 16.2361V1.72768C21.171 1.32579 20.8452 1 20.4433 1H13.4261C12.9517 1 12.6042 1.44656 12.7207 1.90638L16.6007 17.2222C16.6997 17.6129 17.0972 17.8487 17.4875 17.7483L20.6247 16.9408Z" fill="white"/>
<path d="M34.3985 15.8586C33.5094 15.8586 32.7119 15.7104 32.0062 15.414C31.3005 15.1035 30.743 14.6801 30.3337 14.1438C29.9244 13.5933 29.6986 12.9652 29.6562 12.2595H31.6463C31.7028 12.8382 31.9709 13.311 32.4508 13.678C32.9448 14.045 33.587 14.2284 34.3774 14.2284C35.1113 14.2284 35.69 14.0661 36.1134 13.7415C36.5368 13.4169 36.7485 13.0076 36.7485 12.5136C36.7485 12.0055 36.5227 11.6315 36.0711 11.3915C35.6194 11.1375 34.9208 10.8905 33.9751 10.6506C33.1142 10.4247 32.4085 10.1989 31.858 9.97308C31.3217 9.73314 30.8559 9.38735 30.4607 8.9357C30.0797 8.46994 29.8891 7.86304 29.8891 7.115C29.8891 6.52221 30.0656 5.97883 30.4184 5.48484C30.7713 4.99085 31.2723 4.60271 31.9215 4.32043C32.5708 4.02404 33.3118 3.87584 34.1445 3.87584C35.4289 3.87584 36.4662 4.20046 37.2566 4.84971C38.047 5.49895 38.4704 6.38813 38.5269 7.51725H36.6003C36.558 6.91035 36.311 6.42342 35.8593 6.05645C35.4218 5.68949 34.829 5.50601 34.081 5.50601C33.3894 5.50601 32.839 5.6542 32.4296 5.9506C32.0203 6.24699 31.8157 6.63513 31.8157 7.115C31.8157 7.49608 31.9357 7.81364 32.1756 8.06769C32.4296 8.30763 32.7402 8.50523 33.1071 8.66048C33.4882 8.80162 34.0104 8.96393 34.6738 9.14741C35.5065 9.37324 36.184 9.59906 36.7062 9.82488C37.2284 10.0366 37.673 10.3612 38.04 10.7987C38.421 11.2363 38.6186 11.8079 38.6327 12.5136C38.6327 13.1487 38.4563 13.7203 38.1035 14.2284C37.7506 14.7365 37.2496 15.1388 36.6003 15.4352C35.9652 15.7175 35.2313 15.8586 34.3985 15.8586Z" fill="white"/>
<path d="M41.4063 6.20465C41.7873 5.54129 42.3519 4.99085 43.0999 4.55331C43.8621 4.10167 44.7442 3.87584 45.7463 3.87584C46.7766 3.87584 47.7081 4.12284 48.5409 4.61683C49.3877 5.11082 50.0511 5.80946 50.5309 6.71275C51.0108 7.60193 51.2507 8.63931 51.2507 9.82488C51.2507 10.9963 51.0108 12.0408 50.5309 12.9582C50.0511 13.8756 49.3877 14.5884 48.5409 15.0965C47.7081 15.6046 46.7766 15.8586 45.7463 15.8586C44.7583 15.8586 43.8833 15.6398 43.1211 15.2023C42.3731 14.7507 41.8014 14.1932 41.4063 13.5298L41.4277 18.8237H39.4797V4.06638H41.4063V6.20465ZM49.2819 9.82488C49.2819 8.94982 49.1054 8.18766 48.7526 7.53842C48.3997 6.88918 47.9199 6.39519 47.313 6.05645C46.7202 5.71772 46.0639 5.54835 45.3441 5.54835C44.6384 5.54835 43.9821 5.72477 43.3752 6.07762C42.7824 6.41636 42.3025 6.9174 41.9355 7.58076C41.5827 8.23 41.4063 8.9851 41.4063 9.84606C41.4063 10.7211 41.5827 11.4903 41.9355 12.1537C42.3025 12.8029 42.7824 13.304 43.3752 13.6568C43.9821 13.9956 44.6384 14.1649 45.3441 14.1649C46.0639 14.1649 46.7202 13.9956 47.313 13.6568C47.9199 13.304 48.3997 12.8029 48.7526 12.1537C49.1054 11.4903 49.2819 10.7141 49.2819 9.82488Z" fill="white"/>
<path d="M52.1358 9.82488C52.1358 8.63931 52.3757 7.60193 52.8556 6.71275C53.3355 5.80946 53.9918 5.11082 54.8245 4.61683C55.6713 4.12284 56.6099 3.87584 57.6402 3.87584C58.6565 3.87584 59.5386 4.09461 60.2866 4.53214C61.0347 4.96968 61.5922 5.52012 61.9591 6.18348V4.06638H63.9069V15.6681H61.9591V13.5086C61.578 14.1861 61.0064 14.7507 60.2443 15.2023C59.4962 15.6398 58.6212 15.8586 57.6191 15.8586C56.5888 15.8586 55.6572 15.6046 54.8245 15.0965C53.9918 14.5884 53.3355 13.8756 52.8556 12.9582C52.3757 12.0408 52.1358 10.9963 52.1358 9.82488ZM61.9591 9.84606C61.9591 8.97099 61.7827 8.20883 61.4299 7.55959C61.077 6.91035 60.5971 6.41636 59.9902 6.07762C59.3974 5.72477 58.7411 5.54835 58.0213 5.54835C57.3015 5.54835 56.6452 5.71772 56.0524 6.05645C55.4596 6.39519 54.9868 6.88918 54.634 7.53842C54.2811 8.18766 54.1047 8.94982 54.1047 9.82488C54.1047 10.7141 54.2811 11.4903 54.634 12.1537C54.9868 12.8029 55.4596 13.304 56.0524 13.6568C56.6452 13.9956 57.3015 14.1649 58.0213 14.1649C58.7411 14.1649 59.3974 13.9956 59.9902 13.6568C60.5971 13.304 61.077 12.8029 61.4299 12.1537C61.7827 11.4903 61.9591 10.7211 61.9591 9.84606Z" fill="white"/>
<path d="M66.7888 5.9506C67.1275 5.28724 67.6074 4.77208 68.2284 4.40512C68.8635 4.03815 69.6328 3.85467 70.536 3.85467V5.84474H70.0279C67.8685 5.84474 66.7888 7.0162 66.7888 9.35912V15.6681H64.8622V4.06638H66.7888V5.9506Z" fill="white"/>
<path d="M77.5814 15.6681L73.0297 10.5447V15.6681H71.1031V0.0015564H73.0297V9.21093L77.4967 4.06638H80.1854L74.7233 9.84606L80.2066 15.6681H77.5814Z" fill="white"/>
<path d="M82.4433 5.9506C82.782 5.28724 83.2619 4.77208 83.8829 4.40512C84.5181 4.03815 85.2873 3.85467 86.1906 3.85467V5.84474H85.6824C83.523 5.84474 82.4433 7.0162 82.4433 9.35912V15.6681H80.5167V4.06638H82.4433V5.9506Z" fill="white"/>
<path d="M29.6562 29.2447C29.6562 28.0591 29.8962 27.0218 30.3761 26.1326C30.8559 25.2293 31.5122 24.5306 32.345 24.0367C33.1918 23.5427 34.1374 23.2957 35.1819 23.2957C36.0852 23.2957 36.9249 23.5074 37.7012 23.9308C38.4775 24.3401 39.0703 24.8835 39.4796 25.561V18.7962H41.4273V35.0879H39.4796V32.9073C39.0985 33.5989 38.5339 34.1705 37.7859 34.6221C37.0379 35.0597 36.1628 35.2784 35.1607 35.2784C34.1304 35.2784 33.1918 35.0244 32.345 34.5163C31.5122 34.0082 30.8559 33.2954 30.3761 32.378C29.8962 31.4606 29.6562 30.4162 29.6562 29.2447ZM39.4796 29.2659C39.4796 28.3908 39.3032 27.6287 38.9503 26.9794C38.5975 26.3302 38.1176 25.8362 37.5107 25.4975C36.9179 25.1446 36.2616 24.9682 35.5418 24.9682C34.822 24.9682 34.1657 25.1375 33.5729 25.4763C32.9801 25.815 32.5073 26.309 32.1544 26.9583C31.8016 27.6075 31.6252 28.3696 31.6252 29.2447C31.6252 30.1339 31.8016 30.9102 32.1544 31.5735C32.5073 32.2228 32.9801 32.7238 33.5729 33.0767C34.1657 33.4154 34.822 33.5848 35.5418 33.5848C36.2616 33.5848 36.9179 33.4154 37.5107 33.0767C38.1176 32.7238 38.5975 32.2228 38.9503 31.5735C39.3032 30.9102 39.4796 30.141 39.4796 29.2659Z" fill="white"/>
<path d="M44.2001 23.4862V35.0879H42.2736V23.4862H44.2001Z" fill="white"/>
<path d="M50.5591 23.3019C51.5612 23.3019 52.4363 23.5206 53.1843 23.9582C53.9465 24.3957 54.511 24.9461 54.878 25.6095V23.4924H56.8257V35.3481C56.8257 36.4067 56.5999 37.3453 56.1483 38.1639C55.6966 38.9966 55.0474 39.6458 54.2005 40.1116C53.3678 40.5774 52.394 40.8102 51.2789 40.8102C49.7546 40.8102 48.4844 40.4503 47.4682 39.7305C46.452 39.0107 45.8521 38.0298 45.6686 36.7878H47.574C47.7857 37.4935 48.2233 38.058 48.8866 38.4814C49.55 38.919 50.3474 39.1377 51.2789 39.1377C52.3375 39.1377 53.1984 38.8061 53.8618 38.1427C54.5393 37.4794 54.878 36.5478 54.878 35.3481V32.9135C54.4969 33.591 53.9324 34.1555 53.1843 34.6072C52.4363 35.0588 51.5612 35.2846 50.5591 35.2846C49.5288 35.2846 48.5902 35.0306 47.7434 34.5225C46.9107 34.0144 46.2544 33.3016 45.7745 32.3842C45.2946 31.4668 45.0547 30.4224 45.0547 29.2509C45.0547 28.0653 45.2946 27.028 45.7745 26.1388C46.2544 25.2355 46.9107 24.5368 47.7434 24.0428C48.5902 23.5489 49.5288 23.3019 50.5591 23.3019ZM54.878 29.2721C54.878 28.397 54.7016 27.6349 54.3487 26.9856C53.9959 26.3364 53.516 25.8424 52.9091 25.5036C52.3163 25.1508 51.66 24.9744 50.9402 24.9744C50.2204 24.9744 49.5641 25.1437 48.9713 25.4825C48.3785 25.8212 47.9057 26.3152 47.5529 26.9644C47.2 27.6137 47.0236 28.3758 47.0236 29.2509C47.0236 30.1401 47.2 30.9164 47.5529 31.5797C47.9057 32.229 48.3785 32.73 48.9713 33.0829C49.5641 33.4216 50.2204 33.591 50.9402 33.591C51.66 33.591 52.3163 33.4216 52.9091 33.0829C53.516 32.73 53.9959 32.229 54.3487 31.5797C54.7016 30.9164 54.878 30.1471 54.878 29.2721Z" fill="white"/>
<path d="M63.7132 25.0802V31.9184C63.7132 32.483 63.8332 32.8853 64.0731 33.1252C64.3131 33.351 64.7294 33.4639 65.3222 33.4639H66.7407V35.0941H65.0047C63.932 35.0941 63.1275 34.8471 62.5912 34.3531C62.0548 33.8591 61.7867 33.0476 61.7867 31.9184V25.0802H60.442V23.4924H61.7867V20.5708H63.7132V23.4924H66.7407V25.0802H63.7132Z" fill="white"/>
<path d="M67.3609 29.2509C67.3609 28.0653 67.6008 27.028 68.0807 26.1388C68.5606 25.2355 69.2169 24.5368 70.0496 24.0428C70.8964 23.5489 71.835 23.3019 72.8653 23.3019C73.8816 23.3019 74.7637 23.5206 75.5117 23.9582C76.2598 24.3957 76.8173 24.9461 77.1842 25.6095V23.4924H79.132V35.0941H77.1842V32.9347C76.8031 33.6121 76.2315 34.1767 75.4694 34.6283C74.7213 35.0659 73.8463 35.2846 72.8442 35.2846C71.8139 35.2846 70.8823 35.0306 70.0496 34.5225C69.2169 34.0144 68.5606 33.3016 68.0807 32.3842C67.6008 31.4668 67.3609 30.4224 67.3609 29.2509ZM77.1842 29.2721C77.1842 28.397 77.0078 27.6349 76.6549 26.9856C76.3021 26.3364 75.8222 25.8424 75.2153 25.5036C74.6225 25.1508 73.9662 24.9744 73.2464 24.9744C72.5266 24.9744 71.8703 25.1437 71.2775 25.4825C70.6847 25.8212 70.2119 26.3152 69.8591 26.9644C69.5062 27.6137 69.3298 28.3758 69.3298 29.2509C69.3298 30.1401 69.5062 30.9164 69.8591 31.5797C70.2119 32.229 70.6847 32.73 71.2775 33.0829C71.8703 33.4216 72.5266 33.591 73.2464 33.591C73.9662 33.591 74.6225 33.4216 75.2153 33.0829C75.8222 32.73 76.3021 32.229 76.6549 31.5797C77.0078 30.9164 77.1842 30.1471 77.1842 29.2721Z" fill="white"/>
<path d="M81.9087 19.4276V35.0941H79.9821V19.4276H81.9087Z" fill="white"/>
<path d="M87.2598 35.2846C86.3707 35.2846 85.5732 35.1364 84.8675 34.84C84.1618 34.5295 83.6043 34.1061 83.195 33.5698C82.7857 33.0193 82.5599 32.3913 82.5176 31.6856H84.5076C84.5641 32.2642 84.8322 32.7371 85.3121 33.104C85.8061 33.471 86.4483 33.6545 87.2387 33.6545C87.9726 33.6545 88.5513 33.4922 88.9747 33.1675C89.3981 32.8429 89.6098 32.4336 89.6098 31.9396C89.6098 31.4315 89.384 31.0575 88.9324 30.8176C88.4807 30.5635 87.7821 30.3165 86.8364 30.0766C85.9755 29.8508 85.2698 29.6249 84.7193 29.3991C84.183 29.1592 83.7172 28.8134 83.322 28.3617C82.941 27.896 82.7504 27.2891 82.7504 26.541C82.7504 25.9482 82.9269 25.4048 83.2797 24.9109C83.6326 24.4169 84.1336 24.0287 84.7828 23.7465C85.4321 23.4501 86.1731 23.3019 87.0058 23.3019C88.2902 23.3019 89.3275 23.6265 90.1179 24.2757C90.9083 24.925 91.3317 25.8142 91.3882 26.9433H89.4616C89.4193 26.3364 89.1723 25.8494 88.7206 25.4825C88.2831 25.1155 87.6903 24.932 86.9423 24.932C86.2507 24.932 85.7003 25.0802 85.291 25.3766C84.8816 25.673 84.677 26.0611 84.677 26.541C84.677 26.9221 84.797 27.2397 85.0369 27.4937C85.2909 27.7337 85.6015 27.9312 85.9684 28.0865C86.3495 28.2276 86.8717 28.39 87.5351 28.5734C88.3678 28.7993 89.0453 29.0251 89.5675 29.2509C90.0897 29.4626 90.5343 29.7872 90.9013 30.2248C91.2823 30.6623 91.4799 31.2339 91.494 31.9396C91.494 32.5747 91.3176 33.1464 90.9648 33.6545C90.6119 34.1626 90.1109 34.5648 89.4616 34.8612C88.8265 35.1435 88.0926 35.2846 87.2598 35.2846Z" fill="white"/>
<path d="M59.5983 23.4843V35.086H57.6718V23.4843H59.5983Z" fill="white"/>
<rect x="57.582" y="19.1999" width="2.12561" height="2.0867" fill="white"/>
<rect x="57.582" y="19.1999" width="2.12561" height="2.0867" fill="white"/>
<rect x="42.1797" y="19.1999" width="2.12561" height="2.0867" fill="white"/>
<rect x="92.8438" y="32.9861" width="2.12561" height="2.0867" fill="white"/>
</svg>
