<svg width="17" height="16" viewBox="0 0 17 16" fill="none" xmlns="http://www.w3.org/2000/svg">
<path d="M2.80005 6.66667C2.80005 7.2795 2.92076 7.88634 3.15528 8.45252C3.3898 9.01871 3.73354 9.53316 4.16688 9.9665C4.60022 10.3998 5.11467 10.7436 5.68086 10.9781C6.24705 11.2126 6.85388 11.3333 7.46672 11.3333C8.07955 11.3333 8.68639 11.2126 9.25257 10.9781C9.81876 10.7436 10.3332 10.3998 10.7665 9.9665C11.1999 9.53316 11.5436 9.01871 11.7782 8.45252C12.0127 7.88634 12.1334 7.2795 12.1334 6.66667C12.1334 6.05383 12.0127 5.447 11.7782 4.88081C11.5436 4.31462 11.1999 3.80018 10.7665 3.36683C10.3332 2.93349 9.81876 2.58975 9.25257 2.35523C8.68639 2.12071 8.07955 2 7.46672 2C6.85388 2 6.24705 2.12071 5.68086 2.35523C5.11467 2.58975 4.60022 2.93349 4.16688 3.36683C3.73354 3.80018 3.3898 4.31462 3.15528 4.88081C2.92076 5.447 2.80005 6.05383 2.80005 6.66667Z" stroke="#737373" stroke-width="1.33333" stroke-linecap="round" stroke-linejoin="round"/>
<path d="M14.8 14L10.8 10" stroke="#737373" stroke-width="1.33333" stroke-linecap="round" stroke-linejoin="round"/>
</svg>
